<svg width="271" height="309" viewBox="0 0 271 309" fill="none" xmlns="http://www.w3.org/2000/svg">
<path d="M0 309V79H147V202H214C245 202 271 227 271 271V309H0Z" fill="white"/>
<path d="M95.7169 160H89.6436V135.523C89.6436 126.811 85.8401 122.456 78.2331 122.456C76.0246 122.456 73.8468 122.977 71.6996 124.02C69.5525 125.063 67.8961 126.382 66.7305 127.977V160H60.5652V118.223H65.7183L66.2704 122.64H66.5465C70.166 118.959 74.7056 117.119 80.1655 117.119C90.5331 117.119 95.7169 123.1 95.7169 135.063V160Z" fill="#392424"/>
<path d="M45.7111 118.223V160H39.6377V118.223H45.7111ZM38.7175 104.604C38.7175 103.561 39.1163 102.641 39.9138 101.843C40.7113 101.046 41.6622 100.647 42.7664 100.647C43.8707 100.647 44.8215 101.046 45.619 101.843C46.4166 102.641 46.8153 103.561 46.8153 104.604C46.8153 105.769 46.4166 106.751 45.619 107.548C44.8215 108.285 43.8707 108.653 42.7664 108.653C41.6008 108.653 40.6193 108.285 39.8218 107.548C39.0856 106.751 38.7175 105.769 38.7175 104.604Z" fill="#392424"/>
<path d="M132.057 173.223L113.837 221.349C111.076 228.834 107.273 232.576 102.426 232.576C99.3589 232.576 96.2916 231.472 93.2243 229.263L95.2487 225.95C97.3345 227.055 99.1749 227.607 100.77 227.607C103.837 227.607 106.506 224.754 108.776 219.049L110.432 215H108.868L92.7642 173.223H99.2976L112.549 208.651L125.431 173.223H132.057Z" fill="#392424"/>
<path d="M84.6592 215H78.4939V191.075C78.4939 181.995 74.6904 177.456 67.0834 177.456C62.9731 177.456 59.1696 179.235 55.6729 182.793C56.2863 184.94 56.5931 187.333 56.5931 189.971V215H50.5197V190.707C50.5197 181.873 46.8082 177.456 39.3853 177.456C37.4222 177.456 35.3671 178.008 33.2199 179.112C31.1341 180.155 29.5084 181.474 28.3428 183.069V215H22.1775V173.223H27.3306L27.8827 177.548H28.1588C32.0237 173.928 36.4713 172.119 41.5017 172.119C47.5137 172.119 51.716 174.358 54.1085 178.836C58.1574 174.358 63.2185 172.119 69.2918 172.119C74.3223 172.119 78.1871 173.744 80.8864 176.996C83.4016 180.063 84.6592 184.388 84.6592 189.971V215Z" fill="#392424"/>
<path d="M235.279 251.345C232.273 249.382 228.837 248.4 224.973 248.4C222.028 248.4 220.556 249.658 220.556 252.173C220.556 254.504 222.549 256.161 226.537 257.142C231.506 258.369 234.88 259.75 236.659 261.283C239.236 263.492 240.524 266.805 240.524 271.221C240.524 275.148 239.113 278.276 236.291 280.608C233.53 282.939 229.788 284.104 225.065 284.104C218.378 284.104 212.734 282.203 208.133 278.399L212.366 271.958C215.556 274.473 219.39 275.73 223.868 275.73C225.647 275.73 227.089 275.301 228.193 274.442C229.297 273.583 229.85 272.448 229.85 271.037C229.85 268.461 227.672 266.774 223.316 265.976C213.991 264.197 209.329 259.658 209.329 252.357C209.329 248.861 210.74 245.947 213.562 243.615C216.445 241.284 220.034 240.119 224.328 240.119C230.156 240.119 235.217 241.806 239.512 245.18L235.279 251.345Z" fill="#392424"/>
<path d="M201.106 265.884H172.395C172.641 268.706 173.776 271.068 175.8 272.97C177.886 274.81 180.34 275.73 183.162 275.73C187.149 275.73 191.321 274.504 195.676 272.05L198.621 278.215C194.204 282.141 188.683 284.104 182.057 284.104C174.941 284.104 169.389 282.08 165.402 278.031C161.598 274.227 159.697 268.982 159.697 262.296C159.697 255.731 161.844 250.302 166.138 246.008C170.003 242.082 174.911 240.119 180.861 240.119C187.487 240.119 192.64 242.358 196.321 246.836C199.511 250.64 201.106 255.578 201.106 261.651V265.884ZM171.751 257.326H189.511C189.204 251.314 186.29 248.308 180.769 248.308C175.432 248.308 172.426 251.314 171.751 257.326Z" fill="#392424"/>
<path d="M131.877 240.119C138.748 240.119 144.085 242.542 147.888 247.388C151.078 251.437 152.673 256.376 152.673 262.204C152.673 269.013 150.312 274.534 145.588 278.767C141.662 282.325 137.091 284.104 131.877 284.104C125.804 284.104 120.712 281.834 116.602 277.295C112.921 273.185 111.08 268.154 111.08 262.204C111.08 255.455 113.135 249.995 117.246 245.824C120.988 242.02 125.865 240.119 131.877 240.119ZM131.877 275.454C137.828 275.454 140.803 271.037 140.803 262.204C140.803 253.001 137.828 248.4 131.877 248.4C125.926 248.4 122.951 253.001 122.951 262.204C122.951 271.037 125.926 275.454 131.877 275.454Z" fill="#392424"/>
<path d="M63.158 229.996L74.7525 223.647V246.192C75.7341 244.29 77.7585 242.664 80.8258 241.315C82.8503 240.456 84.752 240.027 86.5311 240.027C91.8683 240.027 95.7331 241.499 98.1256 244.444C100.58 247.327 101.806 251.989 101.806 258.431V283H90.2119V258.891C90.2119 252.879 87.6353 249.873 82.4822 249.873C78.7401 249.873 76.1635 250.916 74.7525 253.001V283H63.158V229.996Z" fill="#392424"/>
<path d="M48.1831 251.345C45.1771 249.382 41.7417 248.4 37.8768 248.4C34.9322 248.4 33.4598 249.658 33.4598 252.173C33.4598 254.504 35.4536 256.161 39.4412 257.142C44.4102 258.369 47.7843 259.75 49.5634 261.283C52.1399 263.492 53.4282 266.805 53.4282 271.221C53.4282 275.148 52.0173 278.276 49.1953 280.608C46.4347 282.939 42.6925 284.104 37.9688 284.104C31.282 284.104 25.6381 282.203 21.0371 278.399L25.27 271.958C28.4601 274.473 32.2942 275.73 36.7726 275.73C38.5516 275.73 39.9933 275.301 41.0975 274.442C42.2018 273.583 42.7539 272.448 42.7539 271.037C42.7539 268.461 40.5761 266.774 36.2204 265.976C26.8957 264.197 22.2334 259.658 22.2334 252.357C22.2334 248.861 23.6443 245.947 26.4663 243.615C29.3496 241.284 32.9384 240.119 37.2327 240.119C43.0606 240.119 48.1217 241.806 52.416 245.18L48.1831 251.345Z" fill="#392424"/>
<path fill-rule="evenodd" clip-rule="evenodd" d="M22 0C24.7614 0 27 2.23858 27 5V81C27 83.7614 24.7614 86 22 86C19.2386 86 17 83.7614 17 81V5C17 2.23858 19.2386 0 22 0Z" fill="white"/>
<path fill-rule="evenodd" clip-rule="evenodd" d="M121 0C123.761 0 126 2.23858 126 5V81C126 83.7614 123.761 86 121 86C118.239 86 116 83.7614 116 81V5C116 2.23858 118.239 0 121 0Z" fill="white"/>
<path fill-rule="evenodd" clip-rule="evenodd" d="M17 40C17 37.2386 19.2386 35 22 35L122 35C124.761 35 127 37.2386 127 40C127 42.7614 124.761 45 122 45L22 45C19.2386 45 17 42.7614 17 40Z" fill="white"/>
<path fill-rule="evenodd" clip-rule="evenodd" d="M48 40C50.7614 40 53 42.2386 53 45V61C53 63.7614 50.7614 66 48 66C45.2386 66 43 63.7614 43 61V45C43 42.2386 45.2386 40 48 40Z" fill="white"/>
<path fill-rule="evenodd" clip-rule="evenodd" d="M72 40C74.7614 40 77 42.2386 77 45V61C77 63.7614 74.7614 66 72 66C69.2386 66 67 63.7614 67 61V45C67 42.2386 69.2386 40 72 40Z" fill="white"/>
<path fill-rule="evenodd" clip-rule="evenodd" d="M96 40C98.7614 40 101 42.2386 101 45V61C101 63.7614 98.7614 66 96 66C93.2386 66 91 63.7614 91 61V45C91 42.2386 93.2386 40 96 40Z" fill="white"/>
</svg>
